<svg width="50" height="55" viewBox="0 0 50 55" fill="none" xmlns="http://www.w3.org/2000/svg">
<path d="M8.45617 0L6.17417 0.524865C7.50652 4.43219 9.33496 6.485 11.4185 7.55805C13.5304 8.65444 15.9684 8.74775 18.6331 8.54947C22.1766 8.2812 26.1736 7.42975 30.2557 8.67777C31.3613 9.08599 32.5235 9.60503 33.7567 10.2932C34.4087 10.1299 34.9756 9.91995 35.5426 9.76832C35.5426 9.76832 35.9961 8.57279 35.2591 7.04485C34.6213 5.70353 33.0338 4.0123 29.0226 2.82261L28.2288 4.64214C30.6951 5.38861 32.0274 6.31004 32.7078 7.18482C32.807 7.31312 32.8779 7.42975 32.9487 7.54639C32.4101 7.31312 31.8574 7.10317 31.3187 6.93988C27.3359 5.4236 24.1467 5.33029 21.5954 5.09702C20.2347 4.98038 19.0866 4.84042 18.137 4.28056C17.1873 3.70904 16.4786 2.71763 15.8691 0.991411L13.6013 1.5396C14.4092 3.82568 15.4865 5.08536 16.7479 5.84349C17.3149 6.18174 17.9244 6.42668 18.5764 6.60163C16.3369 6.70077 14.225 6.67978 12.6658 5.91348C10.9366 5.01537 9.56174 3.2425 8.45617 0ZM21.1419 0.419892C21.0143 1.72622 21.2978 2.78762 21.7655 3.65073C22.8569 3.7627 23.8066 3.77903 24.7987 3.91899C24.0333 3.21917 23.353 2.14611 23.4947 0.559856L21.1419 0.419892ZM38.1931 1.99449L36.6481 3.45244C37.8104 4.29223 38.1364 5.2953 38.1364 6.14675C37.5128 5.68953 36.9458 5.38511 36.2796 5.10868C37.3001 6.09076 37.4419 7.83332 37.5128 8.77107L39.7097 8.96936C39.7097 8.96936 42.2043 4.86375 38.1931 1.99449ZM26.7547 10.0832C24.2743 10.3165 22.9561 9.77998 22.1624 11.6928C22.1624 11.6928 24.8271 14.947 31.9282 14.8653C31.5314 16.195 31.7156 17.1747 31.7156 18.3528C31.7156 22.2718 27.8886 25.6892 19.4552 25.6892C15.1746 25.6892 9.97279 26.3191 6.00408 28.0803C3.18347 29.3283 0.976585 31.1361 0 33.6438L1.10698 34.9152L3.22599 34.9385V42.135L0.640663 45.4358L1.38338 55H3.83547L4.04808 47.302C5.26704 46.7188 8.0593 45.2025 10.4405 42.8698C13.6722 39.7323 16.1526 35.1718 13.2328 29.5266L15.4156 28.7684C17.811 33.3989 16.9747 37.4112 14.877 40.642C18.8882 40.5371 22.3325 40.3271 25.2523 39.9305L24.5861 33.3639L26.939 33.2006L29.1785 55H31.6164L32.0274 40.8053C33.9693 40.1288 38.3915 37.6445 40.4609 29.0134C40.7161 27.9636 40.8578 27.0772 40.9287 26.3191C41.2547 24.3945 41.4389 22.2251 41.4956 19.7524L38.023 18.8543H48.696L49.7307 16.9298C48.7243 16.9648 47.5196 16.5332 47.5196 16.5332L47.7605 15.6001H50L37.8813 10.4331C36.5348 10.853 35.1174 11.4012 34.1252 12.0661C33.3314 11.5995 30.5817 10.1416 26.7547 10.0832ZM40.2909 36.5131C38.916 38.6242 37.4419 40.1988 36.1662 41.3185L42.8422 43.7446L39.8798 49.2848L42.0059 50.1013L46.74 42.5432L40.4609 38.181C40.4042 37.9127 40.3334 37.3879 40.2909 36.5131ZM18.4913 42.4382C16.8897 42.5199 15.1888 42.5782 13.3745 42.6015C12.1414 43.9428 10.724 45.2375 9.24991 46.2406L10.483 54.9883H12.9068V47.407C13.9415 46.7071 16.4361 44.9226 18.4913 42.4382Z" fill="black"/>
</svg>
