<svg width="38" height="28" viewBox="0 0 38 28" fill="none" xmlns="http://www.w3.org/2000/svg">
<path d="M0 27.857L2.83984 2.04453C3.36547 10.4523 3.15906 20.1555 5.61766 25.1437C6.49305 18.5089 6.84477 12.0047 6.44281 5.68984C7.63227 11.2906 9.21961 16.7586 9.52625 22.6539C10.104 18.284 10.5159 13.9414 12.0105 9.41875C11.9511 14.5117 10.6698 19.1766 13.0009 21.7211C14.1284 17.7359 15.2659 13.7602 15.4587 8.83984C17.1204 13.6728 16.8916 19.4508 17.4077 24.857C18.0653 19.5398 18.6015 4.71328 21.0723 0C20.8294 9.76406 20.7706 17.4953 23.2128 21.4242C25.6266 18.4029 25.8352 12.4836 25.8909 6.86641C27.595 11.6906 28.7391 17.1867 28.8485 23.9242C29.5224 18.3027 30.3069 12.6813 32.2384 7.06016C31.7893 13.9578 32.138 19.3219 33.7637 22.2297C34.8387 17.8898 35.7562 13.55 36.0387 9.20938C37.4778 15.6766 37.0544 21.6773 37.3439 27.857H0Z" fill="black"/>
</svg>
