<svg width="100" height="100" viewBox="0 0 100 100" fill="none" xmlns="http://www.w3.org/2000/svg">
<path d="M35.1158 0.0018087C31.9227 -0.0859475 28.7296 3.02709 28.0697 7.72204C27.3672 12.7288 29.943 16.9549 33.3489 17.5092C36.7549 18.0634 40.3525 14.8534 41.0337 9.84205C41.7362 4.82609 39.1817 0.618411 35.7544 0.061852C35.5416 0.0272114 35.3287 0.00642745 35.1158 0.0018087ZM59.2345 17.8325L55.5731 19.0334L57.3399 25.5227L61.3632 25.6382L59.2345 17.8325ZM28.4528 19.5876C27.8781 35.8687 28.3677 52.1267 27.6865 66.3524C24.3231 74.62 19.874 82.5642 16.9619 89.2614L22.4285 92.125C26.8563 84.3424 31.4118 76.4213 34.1792 68.3616L36.5846 53.7201L47.867 64.3202L51.3156 84.6658L57.5528 83.3263L53.8062 60.094L41.4382 47.7158L39.4584 27.7628L49.6977 34.9911C55.3815 35.199 59.2984 34.5523 64.5138 33.6748L64.7267 29.9105L49.6551 29.4255L39.7565 19.7262C37.7342 21.2734 35.3074 22.0355 32.7742 21.6199C31.135 21.3427 29.6875 20.6268 28.4528 19.5876ZM24.9191 22.5898L16.3041 25.2918L15.0353 45.0369C17.9155 46.5842 21.6408 47.7158 24.2379 45.8221L24.9191 22.5898ZM100 37.67L79.6279 55.7062L72.8159 67.6919L64.7054 37.8548C63.3643 38.0626 62.1083 38.2704 60.8736 38.4552L70.1337 72.4261L65.3227 80.9015L61.193 81.6867L61.9806 86.6056L48.2502 89.5616L47.3561 84.3194L29.4108 87.7372C27.3885 91.3399 25.7706 94.1804 23.876 97.4828L13.3345 91.9634L0 100H100V37.67Z" fill="black"/>
</svg>
