<svg width="10" height="14" viewBox="0 0 10 14" fill="none" xmlns="http://www.w3.org/2000/svg">
<path d="M5.0421 5.90276e-05V0.00744153C4.48667 1.1483 3.66027 2.14423 2.66001 3.04717L3.81662 2.93088L2.24223 4.85128L3.00298 4.61778L1.97197 6.23824L2.47883 6.52891L0.478067 9.25031L1.58485 9.25586L0 11.7244L1.949 11.4844L2.31696 12.4322L4.35415 11.6856L4.0063 14H5.62954L5.42925 11.9856L6.60021 12.47L6.91257 11.7382L8.27042 12.3574L10 11.7447L8.86351 9.85198L8.48215 9.78459L8.69005 10.2922L8.93057 10.88L8.31921 10.6503L6.75828 10.0624V11.1181L6.32421 10.8643L4.19697 9.62407L3.5348 10.2516L2.98195 10.7757L3.04802 10.031L3.11318 9.30293L3.67088 9.34899L3.95353 9.08051L4.11267 8.93008L4.30334 9.04082L6.18528 10.138V9.25491L6.57623 9.40167L7.91676 9.9064L7.76062 9.52529L7.57183 9.06297L8.07878 9.15244L9.47296 9.39887L8.41417 8.24897L7.68976 8.66337L7.48468 8.78054L7.32754 8.60708L6.88967 8.1217L6.89635 8.15764L6.33197 8.25272L6.14891 7.23946L5.9726 6.26311L6.64719 7.01155L7.6035 8.07093L8.94982 7.30227C8.19337 6.72516 7.73842 6.30209 7.42716 5.86079L7.45209 6.23452L7.5125 7.14995L6.93756 6.41909L5.88061 5.07733L5.19836 6.45972L4.77386 7.31978L4.65602 6.37387L4.5487 5.52214L5.05562 5.46403L5.56536 4.43136L5.76756 4.02163L6.05211 4.38249L6.81868 5.35509L6.79569 5.01461L6.76791 4.59292L7.18094 4.73868L7.87935 4.98508L7.07828 3.94692L5.36596 3.09424L5.0919 3.69128L4.79581 4.33908L4.5591 3.6691L4.33011 3.02313L4.85046 2.85245L4.96446 2.60328L5.08711 2.33382L5.3583 2.46945L6.87228 3.22335L7.37721 3.0591C6.04582 2.04593 5.39552 1.02496 5.0421 5.90276e-05Z" fill="black"/>
</svg>
