<svg width="347" height="220" viewBox="0 0 347 220" fill="none" xmlns="http://www.w3.org/2000/svg">
<path d="M345.787 206.659L345.886 206.608L219.428 8.72536L219.375 8.75285C216.59 3.59118 210.778 0 203.992 0C200.689 0.00351634 197.457 0.869482 194.685 2.49368C191.914 4.11787 189.721 6.43109 188.371 9.15493L104.214 140.843L83.6091 108.601L83.5825 108.615C82.847 107.234 81.6958 106.069 80.2609 105.252C78.8259 104.435 77.1652 104 75.4692 103.996C71.8024 103.996 68.6568 105.983 67.238 108.814L7.16997 202.817H6.89991V203.237L1.08405 212.337C0.383462 213.155 0.00231979 214.161 0 215.196C0 217.821 2.35449 219.948 5.25671 219.948C5.83487 219.948 6.3788 219.845 6.89991 219.687V220H337.822V219.828C340.316 219.655 342.646 218.639 344.347 216.982C346.049 215.325 346.996 213.15 347 210.89C346.991 209.41 346.574 207.956 345.787 206.659Z" fill="black"/>
</svg>
