<svg width="74" height="84" viewBox="0 0 74 84" fill="none" xmlns="http://www.w3.org/2000/svg">
<path d="M2 22L15.6111 30M15.6111 30L37 42M15.6111 30L2 34M15.6111 30L13.6667 16M72 62L58.3889 54M58.3889 54L37 42M58.3889 54L60.3333 68M58.3889 54L72 50M37 42L15.6111 54M37 42V14M37 42V68M37 42L58.3889 30M15.6111 54L2 62M15.6111 54L2 50M15.6111 54L13.6667 68M37 14V2M37 14L27.2778 10M37 14L46.7222 10M37 68V82M37 68L46.7222 74M37 68L27.2778 74M58.3889 30L72 22M58.3889 30L72 34M58.3889 30L60.3333 16" stroke="black" stroke-width="3.75" stroke-linecap="round" stroke-linejoin="round"/>
</svg>
