<svg width="25" height="15" viewBox="0 0 25 15" fill="none" xmlns="http://www.w3.org/2000/svg">
<path d="M4.94933 2.14286H0.878156C0.41035 2.14286 -0.0574553 2.48571 0.00576168 3.04286L1.97813 13.7464C1.97813 13.7464 4.31716 5.86071 4.77232 3.96429C4.9114 3.39643 5.54357 3.21429 6.01137 3.21429H12.5354C12.5354 3.21429 11.6503 0.985714 11.5618 0.739286C11.4101 0.267857 11.1319 0 10.5756 0H6.39068C5.93551 0 5.50564 0.246429 5.3792 0.685714C5.26541 1.11429 4.94933 2.14286 4.94933 2.14286ZM11.1193 2.14286H6.06195C6.06195 2.14286 6.59297 1.07143 7.16192 1.07143H9.85496C10.4618 1.07143 11.1193 2.14286 11.1193 2.14286ZM3.26776 14.1964C2.87581 14.7 2.30686 15 1.67469 15H21.5627C22.2455 15 22.7259 14.6679 22.865 14.1107C23.4213 11.7643 24.9891 5.06786 24.9891 5.06786C25.0776 4.53214 24.6098 4.28571 24.2052 4.28571H20.1214V2.71071C20.1214 2.53929 19.7927 2.14286 19.2869 2.14286H14.533C13.8756 2.14286 13.433 2.76429 13.433 2.76429L12.5354 4.28571H6.95963C6.55504 4.28571 6.16309 4.48929 6.08723 4.82143C6.08723 4.82143 4.07693 12 3.91257 12.675C3.82407 13.0714 3.63442 13.7357 3.26776 14.1964ZM19.3375 4.28571H13.7997C13.7997 4.28571 14.533 3.21429 15.2284 3.21429H18.1237C19.0214 3.21429 19.3375 4.28571 19.3375 4.28571Z" fill="black"/>
</svg>
