<svg width="25" height="25" viewBox="0 0 25 25" fill="none" xmlns="http://www.w3.org/2000/svg">
<path fill-rule="evenodd" clip-rule="evenodd" d="M0 12.5C0 9.18479 1.31696 6.00537 3.66117 3.66117C6.00537 1.31696 9.18479 0 12.5 0C15.8152 0 18.9946 1.31696 21.3388 3.66117C23.683 6.00537 25 9.18479 25 12.5C25 15.8152 23.683 18.9946 21.3388 21.3388C18.9946 23.683 15.8152 25 12.5 25C9.18479 25 6.00537 23.683 3.66117 21.3388C1.31696 18.9946 0 15.8152 0 12.5ZM11.6667 12.5V5H13.3333V12.155L18.09 16.91L16.91 18.09L11.91 13.09C11.8326 13.0125 11.7712 12.9205 11.7295 12.8193C11.6877 12.718 11.6664 12.6095 11.6667 12.5Z" fill="black"/>
</svg>
